<svg width="38" height="38" viewBox="0 0 38 38" fill="none" xmlns="http://www.w3.org/2000/svg">
<g id="ant-design:ellipsis-outlined">
<path id="Vector" d="M0 21.0781C-5.75101e-09 21.351 0.0537521 21.6213 0.158188 21.8734C0.262623 22.1255 0.415697 22.3546 0.608669 22.5476C0.801641 22.7406 1.03073 22.8936 1.28286 22.9981C1.53499 23.1025 1.80522 23.1562 2.07812 23.1562C2.35103 23.1562 2.62126 23.1025 2.87339 22.9981C3.12552 22.8936 3.35461 22.7406 3.54758 22.5476C3.74055 22.3546 3.89363 22.1255 3.99806 21.8734C4.1025 21.6213 4.15625 21.351 4.15625 21.0781C4.15625 20.8052 4.1025 20.535 3.99806 20.2829C3.89363 20.0307 3.74055 19.8016 3.54758 19.6087C3.35461 19.4157 3.12552 19.2626 2.87339 19.1582C2.62126 19.0538 2.35103 19 2.07812 19C1.80522 19 1.53499 19.0538 1.28286 19.1582C1.03073 19.2626 0.801641 19.4157 0.608669 19.6087C0.415697 19.8016 0.262623 20.0307 0.158188 20.2829C0.0537521 20.535 -5.75101e-09 20.8052 0 21.0781ZM10.3906 21.0781C10.3906 21.6293 10.6096 22.1579 10.9993 22.5476C11.389 22.9373 11.9176 23.1562 12.4688 23.1562C13.0199 23.1562 13.5485 22.9373 13.9382 22.5476C14.3279 22.1579 14.5469 21.6293 14.5469 21.0781C14.5469 20.527 14.3279 19.9984 13.9382 19.6087C13.5485 19.2189 13.0199 19 12.4688 19C11.9176 19 11.389 19.2189 10.9993 19.6087C10.6096 19.9984 10.3906 20.527 10.3906 21.0781ZM20.7812 21.0781C20.7812 21.6293 21.0002 22.1579 21.3899 22.5476C21.7796 22.9373 22.3082 23.1562 22.8594 23.1562C23.4105 23.1562 23.9391 22.9373 24.3288 22.5476C24.7186 22.1579 24.9375 21.6293 24.9375 21.0781C24.9375 20.527 24.7186 19.9984 24.3288 19.6087C23.9391 19.2189 23.4105 19 22.8594 19C22.3082 19 21.7796 19.2189 21.3899 19.6087C21.0002 19.9984 20.7812 20.527 20.7812 21.0781Z" fill="#C4C4C4"/>
</g>
</svg>
