<svg width="17" height="18" viewBox="0 0 17 18" fill="none" xmlns="http://www.w3.org/2000/svg">
<g id="ph:flag-light">
<path id="Vector" d="M3.0151 3.75899C2.9758 3.79588 2.94428 3.84149 2.92269 3.89273C2.9011 3.94397 2.88994 3.99963 2.88997 4.05596L2.91683 15.0645C2.91709 15.1687 2.95558 15.2685 3.02384 15.342C3.0921 15.4156 3.18454 15.4567 3.28082 15.4565C3.37711 15.4563 3.46934 15.4146 3.53725 15.3408C3.60515 15.2669 3.64315 15.1669 3.6429 15.0627L3.63567 12.1013C5.33102 10.6047 6.77293 11.3733 8.43658 12.2579C9.41321 12.7794 10.4656 13.3388 11.5855 13.336C12.4066 13.334 13.2644 13.0307 14.1578 12.189C14.1972 12.1523 14.2289 12.107 14.2507 12.056C14.2725 12.005 14.2839 11.9495 14.2842 11.8933L14.265 4.0282C14.2649 3.95284 14.2447 3.87909 14.207 3.81574C14.1692 3.7524 14.1154 3.70215 14.052 3.67096C13.9886 3.63978 13.9183 3.62899 13.8494 3.63987C13.7805 3.65076 13.7159 3.68286 13.6634 3.73235C11.9128 5.38169 10.4418 4.59746 8.73756 3.68936C7.04786 2.78909 5.12312 1.77545 3.0151 3.75899ZM13.5577 11.7097C11.8623 13.207 10.4204 12.4378 8.75675 11.5525C7.22639 10.737 5.51124 9.82366 3.63331 11.1334L3.61649 4.23886C5.31184 2.74159 6.75375 3.51084 8.4174 4.3948C9.94776 5.21032 11.6629 6.12363 13.5408 4.81648L13.5577 11.7097Z" fill="#FF0000"/>
</g>
</svg>
