<svg width="22" height="22" viewBox="0 0 22 22" fill="none" xmlns="http://www.w3.org/2000/svg">
<g id="small_logo_mobile">
<path d="M3.85714 2.42857C3.85714 3.21755 3.21755 3.85714 2.42857 3.85714C1.63959 3.85714 1 3.21755 1 2.42857C1 1.63959 1.63959 1 2.42857 1C3.21755 1 3.85714 1.63959 3.85714 2.42857Z" stroke="url(#paint0_linear_7_157)" stroke-linecap="round"/>
<path d="M12.4286 2.42857C12.4286 3.21755 11.789 3.85714 11 3.85714C10.211 3.85714 9.57143 3.21755 9.57143 2.42857C9.57143 1.63959 10.211 1 11 1C11.789 1 12.4286 1.63959 12.4286 2.42857Z" stroke="url(#paint1_linear_7_157)" stroke-linecap="round"/>
<path d="M21 2.42857C21 3.21755 20.3604 3.85714 19.5714 3.85714C18.7825 3.85714 18.1429 3.21755 18.1429 2.42857C18.1429 1.63959 18.7825 1 19.5714 1C20.3604 1 21 1.63959 21 2.42857Z" stroke="url(#paint2_linear_7_157)" stroke-linecap="round"/>
<path d="M3.85714 11C3.85714 11.789 3.21755 12.4286 2.42857 12.4286C1.63959 12.4286 1 11.789 1 11C1 10.211 1.63959 9.57143 2.42857 9.57143C3.21755 9.57143 3.85714 10.211 3.85714 11Z" stroke="url(#paint3_linear_7_157)" stroke-linecap="round"/>
<path d="M12.4286 11C12.4286 11.789 11.789 12.4286 11 12.4286C10.211 12.4286 9.57143 11.789 9.57143 11C9.57143 10.211 10.211 9.57143 11 9.57143C11.789 9.57143 12.4286 10.211 12.4286 11Z" stroke="url(#paint4_linear_7_157)" stroke-linecap="round"/>
<path d="M21 11C21 11.789 20.3604 12.4286 19.5714 12.4286C18.7825 12.4286 18.1429 11.789 18.1429 11C18.1429 10.211 18.7825 9.57143 19.5714 9.57143C20.3604 9.57143 21 10.211 21 11Z" stroke="url(#paint5_linear_7_157)" stroke-linecap="round"/>
<path d="M3.85714 19.5714C3.85714 20.3604 3.21755 21 2.42857 21C1.63959 21 1 20.3604 1 19.5714C1 18.7825 1.63959 18.1429 2.42857 18.1429C3.21755 18.1429 3.85714 18.7825 3.85714 19.5714Z" stroke="url(#paint6_linear_7_157)" stroke-linecap="round"/>
<path d="M12.4286 19.5714C12.4286 20.3604 11.789 21 11 21C10.211 21 9.57143 20.3604 9.57143 19.5714C9.57143 18.7825 10.211 18.1429 11 18.1429C11.789 18.1429 12.4286 18.7825 12.4286 19.5714Z" stroke="url(#paint7_linear_7_157)" stroke-linecap="round"/>
<path d="M21 19.5714C21 20.3604 20.3604 21 19.5714 21C18.7825 21 18.1429 20.3604 18.1429 19.5714C18.1429 18.7825 18.7825 18.1429 19.5714 18.1429C20.3604 18.1429 21 18.7825 21 19.5714Z" stroke="url(#paint8_linear_7_157)" stroke-linecap="round"/>
</g>
<defs>
<linearGradient id="paint0_linear_7_157" x1="21" y1="1" x2="-3.09913" y2="9.89801" gradientUnits="userSpaceOnUse">
<stop stop-color="#F29682"/>
<stop offset="0.5" stop-color="#EE69AC"/>
<stop offset="1" stop-color="#CB4BCF"/>
</linearGradient>
<linearGradient id="paint1_linear_7_157" x1="21" y1="1" x2="-3.09913" y2="9.89801" gradientUnits="userSpaceOnUse">
<stop stop-color="#F29682"/>
<stop offset="0.5" stop-color="#EE69AC"/>
<stop offset="1" stop-color="#CB4BCF"/>
</linearGradient>
<linearGradient id="paint2_linear_7_157" x1="21" y1="1" x2="-3.09913" y2="9.89801" gradientUnits="userSpaceOnUse">
<stop stop-color="#F29682"/>
<stop offset="0.5" stop-color="#EE69AC"/>
<stop offset="1" stop-color="#CB4BCF"/>
</linearGradient>
<linearGradient id="paint3_linear_7_157" x1="21" y1="1" x2="-3.09913" y2="9.89801" gradientUnits="userSpaceOnUse">
<stop stop-color="#F29682"/>
<stop offset="0.5" stop-color="#EE69AC"/>
<stop offset="1" stop-color="#CB4BCF"/>
</linearGradient>
<linearGradient id="paint4_linear_7_157" x1="21" y1="1" x2="-3.09913" y2="9.89801" gradientUnits="userSpaceOnUse">
<stop stop-color="#F29682"/>
<stop offset="0.5" stop-color="#EE69AC"/>
<stop offset="1" stop-color="#CB4BCF"/>
</linearGradient>
<linearGradient id="paint5_linear_7_157" x1="21" y1="1" x2="-3.09913" y2="9.89801" gradientUnits="userSpaceOnUse">
<stop stop-color="#F29682"/>
<stop offset="0.5" stop-color="#EE69AC"/>
<stop offset="1" stop-color="#CB4BCF"/>
</linearGradient>
<linearGradient id="paint6_linear_7_157" x1="21" y1="1" x2="-3.09913" y2="9.89801" gradientUnits="userSpaceOnUse">
<stop stop-color="#F29682"/>
<stop offset="0.5" stop-color="#EE69AC"/>
<stop offset="1" stop-color="#CB4BCF"/>
</linearGradient>
<linearGradient id="paint7_linear_7_157" x1="21" y1="1" x2="-3.09913" y2="9.89801" gradientUnits="userSpaceOnUse">
<stop stop-color="#F29682"/>
<stop offset="0.5" stop-color="#EE69AC"/>
<stop offset="1" stop-color="#CB4BCF"/>
</linearGradient>
<linearGradient id="paint8_linear_7_157" x1="21" y1="1" x2="-3.09913" y2="9.89801" gradientUnits="userSpaceOnUse">
<stop stop-color="#F29682"/>
<stop offset="0.5" stop-color="#EE69AC"/>
<stop offset="1" stop-color="#CB4BCF"/>
</linearGradient>
</defs>
</svg>
